<?xml version="1.0" encoding="utf-8"?>
<!-- Generator: Adobe Illustrator 27.4.0, SVG Export Plug-In . SVG Version: 6.00 Build 0)  -->
<svg version="1.1" id="Capa_1" xmlns="http://www.w3.org/2000/svg" xmlns:xlink="http://www.w3.org/1999/xlink" x="0px" y="0px"
	 viewBox="0 0 512 512" style="enable-background:new 0 0 512 512;" xml:space="preserve">
<style type="text/css">
	.st0{fill:#FFFFFF;stroke:#FFFFFF;stroke-miterlimit:10;}
</style>
<path class="st0" d="M175,175c9.4-9.3,24.6-9.3,33.1,0l47,47.1L303,175c9.4-9.3,24.6-9.3,33.1,0c10.2,9.4,10.2,24.6,0,33.1l-46.2,47
	l46.2,47.9c10.2,9.4,10.2,24.6,0,33.1c-8.5,10.2-23.7,10.2-33.1,0l-47.9-46.2l-47,46.2c-8.5,10.2-23.7,10.2-33.1,0
	c-9.3-8.5-9.3-23.7,0-33.1l47.1-47.9l-47.1-47C165.7,199.6,165.7,184.4,175,175L175,175z"/>
</svg>
