<?xml version="1.0" encoding="utf-8"?>
<!-- Generator: Adobe Illustrator 24.0.1, SVG Export Plug-In . SVG Version: 6.00 Build 0)  -->
<svg version="1.1" id="Capa_1" xmlns="http://www.w3.org/2000/svg" xmlns:xlink="http://www.w3.org/1999/xlink" x="0px" y="0px"
	 viewBox="0 0 636.3 218.9" style="enable-background:new 0 0 636.3 218.9;" xml:space="preserve">
<g>
	<g>
		<g>
			<path d="M60.3,58.5c10.8,0,23.5,2.9,29.3,11.2c5.3,7.8,4.9,17.7-0.1,25c-2.3,3.3-5.4,5.5-8.5,7.2c-2.2,1.2-4.6,2.2-7.2,3.2
				c-0.8,0.3-1.7,0.6-2.5,0.9c-3.2,1.1-6.6,2-10.3,3c-3.5,0.9-7,1.9-10.3,2.9c-3.6,1.1-6.6,2.3-9.3,3.7c-1.2,0.6-2.3,1.3-3.2,1.9
				c-1.5,1.1-2.9,2.3-4,3.6c-0.7,0.8-1.3,1.6-1.8,2.5c1.4,4.1,3.4,7.7,5.8,10.8c2.6,3.3,5.8,5.8,9.2,7.6c2,1.1,4.1,1.8,6.1,2.3
				c1.8,0.4,3.5,0.6,5.1,0.7c9.2,0.3,16.7-2.4,22.1-6.2c0.7-0.5,1.4-1,2.2-1.6c2.8-2.3,5-5.1,6.6-8.2c2.4-4.7,2.3-8.7,2.3-9.3v-0.1
				h1.5v0.1c0,0.6,0.1,4.9-2.5,10c-1.7,3.3-4.1,6.3-6.9,8.7c-0.8,0.7-1.5,1.2-2.3,1.8c-5.7,4.1-13.6,6.6-23.1,6.9
				c-1.7,0.1-3.6,0-5.5-0.1c-2.2-0.2-4.6-0.5-7.1-1.1c-4.1-1-8.6-2.7-12.9-5.7c-4.2-2.9-8-6.9-10.9-12.2c-3.1-5.5-4.9-12.1-5.3-19.2
				v-0.2c-0.6-10.4,1.1-19.2,4.3-26.2c3.3-7.3,8-12.2,12.5-15.5C40.6,62.1,48.3,58.5,60.3,58.5z M54.8,60.7
				c-6.9,1.7-13.4,6.6-16.7,10.8c-2.9,3.7-5.4,8.4-7,14.5c-1.5,5.8-2.2,13-1.6,21.9v0.1c0.4,5.2,1.1,9.9,2.4,14.1
				c0.4-0.5,0.8-1.1,1.3-1.6c1.2-1.4,2.6-2.7,4.1-3.9c0.9-0.8,2-1.5,3.2-2.3c2.7-1.7,5.7-3.2,9.2-4.7c3.3-1.4,6.6-2.7,10-4.1
				c3.5-1.4,6.6-2.8,9.4-4.3c0.8-0.4,1.5-0.8,2.1-1.2c2.2-1.3,3.8-2.7,5.1-4.1c3.3-3.4,5.2-8.8,5.2-14.5
				C81.6,67.1,68.8,57.5,54.8,60.7z"/>
			<path d="M158.5,58.3c2.4,0,5.4,0.2,8.7,1.1c3.5,0.9,7.2,2.5,10.6,5.1c8.7,6.7,12.1,15.5,12.1,29v37.9c0,10,3.9,13.5,8.1,15.4
				h-20.7V92.9c0-15.6-4.7-32-22.5-32c-2.3,0.1-5.6,0.6-9.1,2.3c-3,1.4-5.9,3.5-8.5,6.3c-2.5,2.8-4.4,5.9-5.7,9.1
				c-1.6,4.1-2.1,9-2.1,14.1v38.8c0,10,3.9,13.5,8.1,15.4h-28.8c4.2-2,8.1-5.4,8.1-15.4V94.4c0-19.2-0.6-22.9-4.8-24.9
				c6.7,0,15.5-5.9,17.3-10.8v14.1v6.8c0.2-0.5,0.3-1,0.5-1.5c1.3-3.4,3.2-6.8,5.8-9.8c2.6-3,5.7-5.4,9-7c3.9-1.9,7.4-2.5,10-2.7
				c0.4,0,0.9-0.1,1.5-0.1C156.9,58.4,157.7,58.3,158.5,58.3L158.5,58.3z"/>
			<path d="M316.1,88.8c-1.4-5.2,0.4-13.6,7.1-20.7c5.8-6.2,13.9-9.5,23.6-9.5c10.5-0.1,23,4.1,28.3,15.4c2.3,4.8,3,10.9,3,17.1
				v40.3c0,10,3.9,13.5,8.1,15.4h-8.1h-12.5v-14.7c-0.2,0.4-0.4,0.9-0.6,1.4c-1.2,2.6-3.1,4.9-5.5,7s-5.2,3.6-7.8,4.7
				c-1.8,0.8-3.5,1.3-4.9,1.6c-1.4,0.4-2.8,0.7-4.2,0.9c-3.2,0.6-6.5,0.8-9.5,0.6c-0.8,0-1.7-0.1-2.6-0.2c-2.3-0.3-4.6-0.8-6.8-1.6
				c-7.8-2.8-11.9-8.8-12.1-17.5c0-4,0.8-7.5,2.6-10.9c0-0.1,0.1-0.2,0.1-0.3c1.6-3,4.1-5.6,7.3-7.8c2.7-1.8,5.8-3.2,9.2-4.6
				c0.8-0.3,1.5-0.6,2.3-0.9c2.3-0.9,4.2-1.6,7.3-2.7c2.8-1,6.4-2.2,9.4-3.4s5.8-2.4,8.1-3.8c1.2-0.7,2.3-1.5,3.2-2.3
				c1-0.9,1.8-1.7,2.4-2.6c0.8-1.1,1.2-2.1,1.5-3c0.4-1.2,0.5-2.2,0.5-2.7c0.2-2.1-0.2-4.8-0.5-6.8c-0.4-2.8-1.3-5.6-2.8-8.1
				s-3.5-4.7-5.9-6.3c-3.2-2-6.3-3-9.5-3c-6.9,0-16.1,3.2-18.4,8.9c-2.2,5.4-1.3,8.6-0.6,12.6c0.4,2.5,0.9,5.5-0.3,8
				c-1,2-3.1,3.3-5.5,3.3C319.3,92.9,316.8,91.3,316.1,88.8L316.1,88.8z M364.6,90.9c-0.7,1-1.6,1.9-2.7,2.8c-1,0.8-2.1,1.6-3.4,2.4
				c-2.4,1.5-5.2,2.7-8.3,4s-6.4,2.5-9.2,3.8c-2.7,1.2-4.9,2.2-6.8,3.3c-0.7,0.4-1.4,0.8-2,1.2c-2.9,1.9-5,4.1-6.5,6.2
				c-1.7,2.5-2.4,4.8-2.9,6.9c0,0.1,0,0.1,0,0.2c-1.3,6.5,0,12.6,4.7,18c1.2,1.1,2.7,2.1,4.4,2.9c0.7,0.3,1.3,0.5,2,0.8
				c2.4,0.8,5.2,1.3,8.3,1.3c1.2,0,2.5-0.1,3.9-0.3c1.3-0.2,2.9-0.5,4.7-1.1c2.5-0.9,5.1-2.2,7.5-4c2.3-1.8,4.1-4,5.2-6.3
				c2.3-4.6,2.1-11.4,2-17.5V89.4C365.4,89.8,365,90.3,364.6,90.9z"/>
			<path d="M420.1,73.7c8.4-9.6,20.5-15.1,33.2-15.1c24.4,0,44.1,19.8,44.1,44.1c0,24.4-19.8,44.1-44.1,44.1
				c-12.7,0-24.8-5.5-33.2-15.1v15.1h-20.7c4.2-2,8.1-5.4,8.1-15.4V47.6c0-19.2-0.6-22.9-4.8-24.9c6.7,0,15.5-5.9,17.3-10.8v61.8
				H420.1z M437.9,63.1c-16.3,6.3-22.5,29.2-14,51.1c8.5,21.9,28.6,34.5,44.8,28.2c16.3-6.3,22.5-29.2,14-51.1
				c-6.8-17.6-21.5-29.8-36-29.8C443.7,61.5,440.7,62,437.9,63.1z"/>
			<path d="M531.5,72.7v58.7c0,10,3.9,13.5,8.1,15.4h-28.8c4.2-2,8.1-5.4,8.1-15.4V94.3c0-19.2-0.6-22.9-4.8-24.9
				c6.7,0,15.5-5.9,17.3-10.8v14.1H531.5z M531.5,46.8c0,4.4-3.5,7.9-7.9,7.9s-7.9-3.5-7.9-7.9s3.5-7.9,7.9-7.9
				S531.5,42.4,531.5,46.8z"/>
			<path d="M557.6,88.8c-1.4-5.2,0.4-13.6,7.1-20.7c5.8-6.2,13.9-9.5,23.6-9.5c10.5-0.1,23,4.1,28.3,15.4c2.3,4.8,3,10.9,3,17.1
				v40.3c0,10,3.9,13.5,8.1,15.4h-8.1H607v-14.7c-0.2,0.4-0.4,0.9-0.6,1.4c-1.2,2.6-3.1,4.9-5.5,7s-5.2,3.6-7.8,4.7
				c-1.8,0.8-3.5,1.3-4.9,1.6c-1.4,0.4-2.8,0.7-4.2,0.9c-3.2,0.6-6.5,0.8-9.5,0.6c-0.8,0-1.7-0.1-2.6-0.2c-2.3-0.3-4.6-0.8-6.8-1.6
				c-7.8-2.8-11.9-8.8-12.1-17.5c0-4,0.8-7.5,2.6-10.9c0-0.1,0.1-0.2,0.1-0.3c1.6-3,4.1-5.6,7.3-7.8c2.7-1.8,5.8-3.2,9.2-4.6
				c0.8-0.3,1.5-0.6,2.3-0.9c2.3-0.9,4.2-1.6,7.3-2.7c2.8-1,6.4-2.2,9.4-3.4s5.8-2.4,8.1-3.8c1.2-0.7,2.3-1.5,3.2-2.3
				c1-0.9,1.8-1.7,2.4-2.6c0.8-1.1,1.2-2.1,1.5-3c0.4-1.2,0.5-2.2,0.5-2.7c0.2-2.1-0.2-4.8-0.5-6.8c-0.4-2.8-1.3-5.6-2.8-8.1
				s-3.5-4.7-5.9-6.3c-3.2-2-6.3-3-9.5-3c-6.9,0-16.1,3.2-18.4,8.9c-2.2,5.4-1.3,8.6-0.6,12.6c0.4,2.5,0.9,5.5-0.3,8
				c-1,2-3.1,3.3-5.5,3.3C560.7,92.9,558.3,91.3,557.6,88.8L557.6,88.8z M606.1,90.9c-0.7,1-1.6,1.9-2.7,2.8c-1,0.8-2.1,1.6-3.4,2.4
				c-2.4,1.5-5.2,2.7-8.3,4s-6.4,2.5-9.2,3.8c-2.7,1.2-4.9,2.2-6.8,3.3c-0.7,0.4-1.4,0.8-2,1.2c-2.9,1.9-5,4.1-6.5,6.2
				c-1.7,2.5-2.4,4.8-2.9,6.9c0,0.1,0,0.1,0,0.2c-1.3,6.5,0,12.6,4.7,18c1.2,1.1,2.7,2.1,4.4,2.9c0.7,0.3,1.3,0.5,2,0.8
				c2.4,0.8,5.2,1.3,8.3,1.3c1.2,0,2.5-0.1,3.9-0.3c1.3-0.2,2.9-0.5,4.7-1.1c2.5-0.9,5.1-2.2,7.5-4c2.3-1.8,4.1-4,5.2-6.3
				c2.3-4.6,2.1-11.4,2-17.5V89.4C606.8,89.8,606.4,90.3,606.1,90.9z"/>
		</g>
		<g>
			<path d="M229.2,57.5c7.1-8.1,17.3-12.7,28-12.7c20.5,0,37.2,16.6,37.2,37.2s-16.6,37.2-37.2,37.2c-10.7,0-20.9-4.6-28-12.7v12.7
				h-17.4c3.6-1.7,6.8-4.6,6.8-13V35.6c0-16.2-0.5-19.3-4-21c5.7,0,13.1-5,14.6-9.1V57.5z M244.3,48.5c-13.7,5.3-19,24.6-11.8,43
				s24.1,29.1,37.8,23.7c13.7-5.3,19-24.6,11.8-43c-5.8-14.8-18.1-25.1-30.3-25.1C249.1,47.1,246.6,47.6,244.3,48.5z"/>
		</g>
		<rect x="221.2" y="144.6" width="62.3" height="3"/>
	</g>
	<g>
		<path d="M164.6,195.5h1.4l7,16.7h-1.7l-2.2-5.2h-7.5l-2.1,5.2h-1.8L164.6,195.5z M168.7,205.7l-3.4-8.3l-3.4,8.3H168.7z"/>
		<path d="M193.9,209.7c-1.6,1.7-3.3,2.6-5.4,2.6c-1.1,0-2.2-0.2-3.1-0.7c-1-0.5-1.8-1.1-2.5-1.9c-0.7-0.8-1.2-1.7-1.6-2.7
			s-0.6-2.1-0.6-3.1c0-1.1,0.2-2.2,0.6-3.2s0.9-1.9,1.6-2.7s1.5-1.4,2.5-1.9c0.9-0.5,2-0.7,3.1-0.7c0.8,0,1.6,0.1,2.2,0.3
			s1.3,0.4,1.8,0.8c0.5,0.3,1,0.7,1.4,1.2c0.4,0.4,0.7,0.9,1,1.5l-1.3,0.8c-0.6-1-1.3-1.8-2.1-2.3c-0.9-0.5-1.9-0.7-3-0.7
			c-0.9,0-1.8,0.2-2.5,0.6c-0.7,0.4-1.4,0.9-1.9,1.6c-0.5,0.7-0.9,1.4-1.2,2.2c-0.3,0.8-0.4,1.7-0.4,2.6c0,0.9,0.2,1.8,0.5,2.7
			c0.3,0.8,0.8,1.6,1.3,2.2c0.6,0.6,1.2,1.1,2,1.5s1.6,0.6,2.5,0.6c1,0,1.9-0.2,2.7-0.7c0.9-0.4,1.7-1.2,2.5-2.1v-2.8h-3.7v-1.3h5.1
			v8.2H194v-2.6H193.9z"/>
		<path d="M217,210.7v1.5h-11.2v-16.7h11v1.5h-9.4v6h8.2v1.4h-8.2v6.4h9.6V210.7z"/>
		<path d="M228.9,198.5v13.7h-1.6v-16.7h1.3l11.1,13.9v-13.9h1.6v16.7h-1.4L228.9,198.5z"/>
		<path d="M251.4,203.7c0-1,0.2-2,0.5-3c0.4-1,0.9-1.9,1.5-2.7c0.7-0.8,1.5-1.4,2.5-1.9c1-0.5,2.1-0.7,3.4-0.7c1.5,0,2.8,0.3,3.8,1
			c1.1,0.7,1.8,1.6,2.3,2.6l-1.3,0.8c-0.3-0.5-0.6-1-1-1.4s-0.8-0.7-1.2-0.9c-0.4-0.2-0.9-0.4-1.4-0.5s-0.9-0.2-1.4-0.2
			c-1,0-1.9,0.2-2.7,0.6c-0.8,0.4-1.4,0.9-1.9,1.6c-0.5,0.7-0.9,1.4-1.2,2.2c-0.3,0.8-0.4,1.7-0.4,2.5c0,0.9,0.2,1.8,0.5,2.7
			c0.3,0.8,0.8,1.6,1.3,2.3c0.6,0.7,1.2,1.2,2,1.6c0.8,0.4,1.6,0.6,2.5,0.6c0.5,0,1-0.1,1.4-0.2c0.5-0.1,1-0.3,1.4-0.6
			c0.5-0.3,0.9-0.6,1.3-1s0.7-0.9,1-1.4l1.4,0.7c-0.3,0.6-0.6,1.2-1.1,1.7s-1,0.9-1.6,1.2s-1.2,0.6-1.9,0.8c-0.7,0.2-1.3,0.3-2,0.3
			c-1.1,0-2.2-0.3-3.2-0.8c-1-0.5-1.8-1.2-2.5-2s-1.2-1.7-1.6-2.8C251.6,205.8,251.4,204.8,251.4,203.7z"/>
		<path d="M275.7,212.2v-16.7h1.6v16.7H275.7z"/>
		<path d="M293.8,195.5h1.4l7,16.7h-1.7l-2.2-5.2h-7.5l-2.1,5.2h-1.8L293.8,195.5z M297.9,205.7l-3.4-8.3l-3.4,8.3H297.9z"/>
		<path d="M322.9,203.7c0-1,0.2-2,0.5-3c0.4-1,0.9-1.9,1.5-2.7c0.7-0.8,1.5-1.4,2.5-1.9s2.1-0.7,3.4-0.7c1.5,0,2.8,0.3,3.8,1
			c1.1,0.7,1.8,1.6,2.3,2.6l-1.3,0.8c-0.3-0.5-0.6-1-1-1.4s-0.8-0.7-1.2-0.9s-0.9-0.4-1.4-0.5s-0.9-0.2-1.4-0.2
			c-1,0-1.9,0.2-2.7,0.6c-0.8,0.4-1.4,0.9-1.9,1.6c-0.5,0.7-0.9,1.4-1.2,2.2s-0.4,1.7-0.4,2.5c0,0.9,0.2,1.8,0.5,2.7
			c0.3,0.8,0.8,1.6,1.3,2.3c0.6,0.7,1.2,1.2,2,1.6c0.8,0.4,1.6,0.6,2.5,0.6c0.5,0,1-0.1,1.4-0.2c0.5-0.1,1-0.3,1.4-0.6
			c0.5-0.3,0.9-0.6,1.3-1c0.4-0.4,0.7-0.9,1-1.4l1.4,0.7c-0.3,0.6-0.6,1.2-1.1,1.7s-1,0.9-1.6,1.2s-1.2,0.6-1.9,0.8s-1.3,0.3-2,0.3
			c-1.1,0-2.2-0.3-3.2-0.8s-1.8-1.2-2.5-2s-1.2-1.7-1.6-2.8C323.1,205.8,322.9,204.8,322.9,203.7z"/>
		<path d="M347.2,212.2v-16.7h7.1c0.7,0,1.4,0.2,2,0.5s1.1,0.7,1.6,1.2c0.4,0.5,0.8,1.1,1,1.7c0.2,0.6,0.4,1.3,0.4,1.9
			c0,0.6-0.1,1.2-0.3,1.8s-0.4,1.1-0.8,1.5c-0.3,0.4-0.7,0.8-1.2,1.1s-1,0.5-1.5,0.6l4.1,6.5h-1.9l-3.9-6.2h-4.9v6.2L347.2,212.2
			L347.2,212.2z M348.9,204.6h5.5c0.5,0,0.9-0.1,1.3-0.3c0.4-0.2,0.7-0.5,1-0.9s0.5-0.8,0.7-1.2c0.2-0.5,0.2-0.9,0.2-1.4
			s-0.1-1-0.3-1.4c-0.2-0.5-0.4-0.9-0.7-1.2s-0.7-0.6-1.1-0.8c-0.4-0.2-0.9-0.3-1.3-0.3h-5.3L348.9,204.6L348.9,204.6z"/>
		<path d="M380.9,210.7v1.5h-11.2v-16.7h11v1.5h-9.4v6h8.2v1.4h-8.2v6.4h9.6V210.7z"/>
		<path d="M396.3,195.5h1.4l7,16.7H403l-2.2-5.2h-7.5l-2.1,5.2h-1.8L396.3,195.5z M400.3,205.7l-3.4-8.3l-3.4,8.3H400.3z"/>
		<path d="M424.3,196.9h-6v15.3h-1.6v-15.3h-6v-1.5h13.6V196.9z"/>
		<path d="M433.9,212.2v-16.7h1.6v16.7H433.9z"/>
		<path d="M446.7,195.5l6,14.7l6-14.7h1.7l-7,16.7H452l-7-16.7H446.7z"/>
		<path d="M473.6,195.5h1.4l7,16.7h-1.7l-2.2-5.2h-7.5l-2.1,5.2h-1.8L473.6,195.5z M477.7,205.7l-3.4-8.3l-3.4,8.3H477.7z"/>
	</g>
</g>
</svg>
